<?xml version="1.0" encoding="utf-8"?>
<!-- Generator: Adobe Illustrator 19.1.0, SVG Export Plug-In . SVG Version: 6.00 Build 0)  -->
<svg version="1.1" id="Layer_1" xmlns="http://www.w3.org/2000/svg" xmlns:xlink="http://www.w3.org/1999/xlink" x="0px" y="0px"
	 viewBox="0 0 34 34" style="enable-background:new 0 0 34 34;" xml:space="preserve">
<style type="text/css">
	.st0{fill:#FFFFFF;}
</style>
<path class="st0" d="M17,34c9.4,0,17-7.6,17-17c0-9.4-7.6-17-17-17C7.6,0,0,7.6,0,17C0,26.4,7.6,34,17,34"/>
<path class="st0" d="M16.3,12.7c0.3,0.4,0.5,1,0.5,1.6c0,0.6-0.2,1.2-0.5,1.5c-0.2,0.2-0.4,0.4-0.8,0.6c0.5,0.2,0.9,0.5,1.2,0.9
	c0.3,0.4,0.4,0.9,0.4,1.5c0,0.6-0.2,1.2-0.5,1.7c-0.2,0.3-0.4,0.6-0.7,0.8c-0.3,0.3-0.7,0.4-1.2,0.5c-0.5,0.1-1,0.1-1.5,0.1H8.5
	V11.6h5.1C14.9,11.6,15.8,12,16.3,12.7z M10.6,13.4v2.3h2.6c0.5,0,0.8-0.1,1.1-0.3c0.3-0.2,0.4-0.5,0.4-0.9c0-0.5-0.2-0.8-0.6-1
	c-0.3-0.1-0.7-0.2-1.2-0.2H10.6z M10.6,17.5v2.8h2.6c0.5,0,0.8-0.1,1.1-0.2c0.5-0.2,0.7-0.7,0.7-1.3c0-0.5-0.2-0.9-0.7-1.1
	c-0.2-0.1-0.6-0.2-1.1-0.2H10.6z M23.5,14.5c0.5,0.2,1,0.6,1.3,1.1c0.3,0.5,0.5,1,0.6,1.6c0.1,0.4,0.1,0.9,0.1,1.5h-5.7
	c0,0.8,0.3,1.3,0.8,1.6c0.3,0.2,0.7,0.3,1.1,0.3c0.5,0,0.8-0.1,1.1-0.4c0.2-0.1,0.3-0.3,0.4-0.5h2.1c-0.1,0.5-0.3,0.9-0.8,1.4
	C24,22,23,22.4,21.7,22.4c-1,0-1.9-0.3-2.7-1c-0.8-0.6-1.2-1.7-1.2-3.1c0-1.3,0.4-2.4,1.1-3.1c0.7-0.7,1.6-1.1,2.8-1.1
	C22.3,14.2,22.9,14.3,23.5,14.5z M20.4,16.3c-0.3,0.3-0.5,0.7-0.5,1.2h3.5c0-0.5-0.2-0.9-0.5-1.2c-0.3-0.3-0.7-0.4-1.2-0.4
	C21.1,15.8,20.7,16,20.4,16.3z M23.9,12.1h-4.5v1.3h4.5V12.1z"/>
</svg>
